<svg id="visual" viewBox="0 0 960 200" width="960" height="200" xmlns="http://www.w3.org/2000/svg" xmlns:xlink="http://www.w3.org/1999/xlink" version="1.1"><rect x="0" y="0" width="960" height="200" fill="#feedd7"></rect><path d="M0 80L137 59L274 67L411 92L549 97L686 104L823 77L960 94L960 201L823 201L686 201L549 201L411 201L274 201L137 201L0 201Z" fill="#f5730a"></path><path d="M0 108L137 100L274 80L411 84L549 101L686 84L823 113L960 93L960 201L823 201L686 201L549 201L411 201L274 201L137 201L0 201Z" fill="#df6009"></path><path d="M0 124L137 102L274 128L411 105L549 100L686 125L823 130L960 104L960 201L823 201L686 201L549 201L411 201L274 201L137 201L0 201Z" fill="#c94d08"></path><path d="M0 140L137 153L274 142L411 139L549 143L686 128L823 132L960 124L960 201L823 201L686 201L549 201L411 201L274 201L137 201L0 201Z" fill="#b33b06"></path><path d="M0 153L137 162L274 152L411 147L549 157L686 150L823 161L960 158L960 201L823 201L686 201L549 201L411 201L274 201L137 201L0 201Z" fill="#9d2804"></path><path d="M0 171L137 174L274 171L411 167L549 165L686 180L823 164L960 182L960 201L823 201L686 201L549 201L411 201L274 201L137 201L0 201Z" fill="#871400"></path></svg>