<svg id="visual" viewBox="0 0 960 200" width="960" height="200" xmlns="http://www.w3.org/2000/svg" xmlns:xlink="http://www.w3.org/1999/xlink" version="1.1"><rect x="0" y="0" width="960" height="200" fill="#feedd7"></rect><path d="M0 118L137 139L274 131L411 106L549 101L686 94L823 121L960 104L960 0L823 0L686 0L549 0L411 0L274 0L137 0L0 0Z" fill="#f5730a"></path><path d="M0 90L137 98L274 118L411 114L549 97L686 114L823 85L960 105L960 0L823 0L686 0L549 0L411 0L274 0L137 0L0 0Z" fill="#df6009"></path><path d="M0 74L137 96L274 70L411 93L549 98L686 73L823 68L960 94L960 0L823 0L686 0L549 0L411 0L274 0L137 0L0 0Z" fill="#c94d08"></path><path d="M0 58L137 45L274 56L411 59L549 55L686 70L823 66L960 74L960 0L823 0L686 0L549 0L411 0L274 0L137 0L0 0Z" fill="#b33b06"></path><path d="M0 45L137 36L274 46L411 51L549 41L686 48L823 37L960 40L960 0L823 0L686 0L549 0L411 0L274 0L137 0L0 0Z" fill="#9d2804"></path><path d="M0 27L137 24L274 27L411 31L549 33L686 18L823 34L960 16L960 0L823 0L686 0L549 0L411 0L274 0L137 0L0 0Z" fill="#871400"></path></svg>