<svg id="visual" viewBox="0 0 960 100" width="960" height="100" xmlns="http://www.w3.org/2000/svg" xmlns:xlink="http://www.w3.org/1999/xlink" version="1.1"><rect x="0" y="0" width="960" height="100" fill="#feffec"></rect><path d="M0 52L120 52L240 67L360 68L480 51L600 43L720 51L840 71L960 68L960 0L840 0L720 0L600 0L480 0L360 0L240 0L120 0L0 0Z" fill="#f5730a"></path><path d="M0 52L120 50L240 43L360 34L480 44L600 45L720 55L840 34L960 59L960 0L840 0L720 0L600 0L480 0L360 0L240 0L120 0L0 0Z" fill="#df6009"></path><path d="M0 33L120 32L240 37L360 42L480 45L600 39L720 34L840 42L960 48L960 0L840 0L720 0L600 0L480 0L360 0L240 0L120 0L0 0Z" fill="#c94d08"></path><path d="M0 38L120 20L240 22L360 30L480 30L600 25L720 33L840 26L960 22L960 0L840 0L720 0L600 0L480 0L360 0L240 0L120 0L0 0Z" fill="#b33b06"></path><path d="M0 16L120 28L240 14L360 22L480 15L600 28L720 19L840 28L960 22L960 0L840 0L720 0L600 0L480 0L360 0L240 0L120 0L0 0Z" fill="#9d2804"></path><path d="M0 15L120 12L240 12L360 6L480 16L600 12L720 13L840 7L960 18L960 0L840 0L720 0L600 0L480 0L360 0L240 0L120 0L0 0Z" fill="#871400"></path></svg>