<svg id="visual" viewBox="0 0 960 100" width="960" height="100" xmlns="http://www.w3.org/2000/svg" xmlns:xlink="http://www.w3.org/1999/xlink" version="1.1"><rect x="0" y="0" width="960" height="100" fill="#feffec"></rect><path d="M0 46L120 46L240 31L360 30L480 47L600 55L720 47L840 27L960 30L960 101L840 101L720 101L600 101L480 101L360 101L240 101L120 101L0 101Z" fill="#f5730a"></path><path d="M0 46L120 48L240 55L360 64L480 54L600 53L720 43L840 64L960 39L960 101L840 101L720 101L600 101L480 101L360 101L240 101L120 101L0 101Z" fill="#df6009"></path><path d="M0 65L120 66L240 61L360 56L480 53L600 59L720 64L840 56L960 50L960 101L840 101L720 101L600 101L480 101L360 101L240 101L120 101L0 101Z" fill="#c94d08"></path><path d="M0 60L120 78L240 76L360 68L480 68L600 73L720 65L840 72L960 76L960 101L840 101L720 101L600 101L480 101L360 101L240 101L120 101L0 101Z" fill="#b33b06"></path><path d="M0 82L120 70L240 84L360 76L480 83L600 70L720 79L840 70L960 76L960 101L840 101L720 101L600 101L480 101L360 101L240 101L120 101L0 101Z" fill="#9d2804"></path><path d="M0 83L120 86L240 86L360 92L480 82L600 86L720 85L840 91L960 80L960 101L840 101L720 101L600 101L480 101L360 101L240 101L120 101L0 101Z" fill="#871400"></path></svg>